<svg xmlns="http://www.w3.org/2000/svg" viewBox="0 0 100 100">
  <!-- Background circle -->
  <!-- <circle cx="50" cy="50" r="45" fill="#3b82f6" /> -->
  
  <!-- Eyes (white circles with black pupils) -->
  <circle cx="35" cy="35" r="8" fill="white" />
  <circle cx="65" cy="35" r="8" fill="white" />
  <circle cx="35" cy="35" r="3" fill="black" />
  <circle cx="65" cy="35" r="3" fill="black" />
  
  <!-- Smile -->
  <path d="M35,60 Q50,70 65,60" stroke="white" stroke-width="4" fill="none" />
  
  <!-- Wacky inflatable arms -->
  <path d="M30,45 Q15,30 25,15 Q35,5 20,0" stroke="white" stroke-width="4" fill="none" />
  <path d="M70,45 Q85,30 75,15 Q65,5 80,0" stroke="white" stroke-width="4" fill="none" />
  
  <!-- Wacky inflatable legs -->
  <path d="M40,75 Q30,85 40,95 Q50,100 45,85" stroke="white" stroke-width="4" fill="none" />
  <path d="M60,75 Q70,85 60,95 Q50,100 55,85" stroke="white" stroke-width="4" fill="none" />
</svg>